<svg transform="scale(1)" version="1.1" id="nyAM6pGJW8" xmlns="http://www.w3.org/2000/svg" xmlns:xlink="http://www.w3.org/1999/xlink" x="0px" y="0px" viewBox="0 0 500 500" xml:space="preserve" class="pbimage_pbimage__wrapper__image__0LEis false"><title>Reset Password 1</title><style type="text/css"> .st0{fill:#59BE4C;} .st1{fill:#FFFFFF;} .st2{fill:#000005;} .st3{fill:none;}
 .st2{fill:#000005;}
 .st1{fill:#FFFFFF;}
 .st0{fill:#59BE4C;}</style><g id="reset"><path class="st0" d="M364.1,267c-2.1,3.8-5.2,6.9-8.9,9.1c-8.2,5.1-18.7,5.5-27.6,2c-4-1.6-7.6-3.8-10.8-6.7
		c-2.5-2.1-4.6-4.6-6.2-7.5c-0.7-1.4-2-3.5,0.1-4.2c0.8-0.2,1.6-0.2,2.4-0.1c0.7,0.1,1.4,0.3,2.1,0.6c-0.2-0.1,0.2,0.1,0.2,0.1
		c0.2,0.2,0.4,0.4,0.6,0.7c0.4,0.7,0.4,1.5,0,2.2c-1.1,2.2-2.8,4-4.9,5.2c-1,0.6-2,1.1-3.1,1.5c-0.5,0.1-0.9,0.2-1.4,0.3
		c0,0-0.4,0-0.3,0c0.9,0.2,1.7,0.6,2.3,1.3c-0.1-0.1-0.1-0.2-0.2-0.3c-0.9-3-1.1-6.1-0.5-9.2c0.2-1.3-4.4-2.8-4.4-2.3
		c-0.4,3-0.9,6.9,0.5,9.6c1.4,2.2,3.8,3.5,6.4,3.5c2.4-0.2,4.6-1.6,6.4-3c1.6-1.3,3.7-3.2,3.9-5.3s-2.3-3.9-4-4.9
		c-2.4-1.5-5.1-2.4-7.9-2.6c-1.1,0-3.2,0-3.6,1.3c-0.1,1,0.1,2,0.6,2.8c0.7,1.5,1.5,2.8,2.5,4.1c3,3.8,6.5,7,10.5,9.7
		c9.9,6.6,22.8,10.3,34.5,6.5c4.1-1.3,7.8-3.5,10.9-6.5c1.7-1.5,3.2-3.3,4.3-5.3c0-0.1,0.1-0.2,0.2-0.3
		C369,268.4,364.5,266.1,364.1,267L364.1,267z" fill="#59BE4C"></path><path class="st0" d="M312.6,227c2.1-3.8,5.2-6.9,8.9-9.1c8.2-5.1,18.7-5.4,27.6-2c4,1.6,7.6,3.8,10.7,6.7c2.5,2.1,4.6,4.6,6.2,7.5
		c0.7,1.3,2,3.5-0.1,4.2c-0.8,0.2-1.6,0.2-2.4,0.1c-0.7-0.1-1.4-0.3-2.1-0.6c0.2,0.1-0.2-0.1-0.2-0.1c-0.2-0.2-0.4-0.4-0.6-0.7
		c-0.3-0.7-0.3-1.5,0-2.2c1.1-2.2,2.8-4,4.9-5.2c0.9-0.6,2-1.2,3.1-1.5c0.5-0.1,0.9-0.2,1.4-0.3c0,0,0.4,0,0.3,0
		c-0.9-0.2-1.7-0.6-2.3-1.3c0.1,0.1,0.1,0.2,0.2,0.3c0.9,3,1.1,6.1,0.5,9.2c-0.2,1.3,4.4,2.8,4.4,2.3c0.4-2.9,0.8-6.9-0.5-9.6
		c-1.4-2.2-3.8-3.5-6.4-3.5c-2.4,0.1-4.6,1.6-6.4,3c-1.6,1.3-3.7,3.2-3.9,5.3s2.3,3.9,4,4.9c2.4,1.5,5.1,2.4,7.9,2.6
		c1.1,0,3.2,0,3.6-1.3c0.1-1-0.1-2-0.6-2.8c-0.7-1.5-1.5-2.8-2.5-4.1c-3-3.8-6.5-7.1-10.5-9.7c-9.9-6.6-22.8-10.3-34.5-6.5
		c-4.1,1.3-7.8,3.5-10.9,6.5c-1.7,1.5-3.2,3.3-4.3,5.3c0,0.1-0.1,0.2-0.2,0.3C307.7,225.5,312.2,227.9,312.6,227L312.6,227z" fill="#59BE4C"></path></g><g id="password"><rect class="st1" x="339" y="246" transform="matrix(1.500928e-02 -0.9999 0.9999 1.500928e-02 22.0546 673.409)" width="27.6" height="159.1"></rect><path class="st0" d="M433.1,339.2l-15.9-0.2l-37.9-0.6l-45.9-0.7l-39.8-0.6l-13-0.2c-2,0-4.2-0.2-6.2-0.1h-0.3l1.4,0.8l0.4-24.1
		V310l-3.5,1.9l15.9,0.2l37.9,0.6l45.8,0.7L412,314l13,0.2c2,0,4.2,0.2,6.2,0.1h0.3l-1.4-0.8l-0.4,24.1l-0.1,3.4
		c0,1.5,4.9,0.9,4.9-1l0.4-24.1l0-3.4c0-0.6-1-0.8-1.4-0.8l-15.9-0.2l-37.9-0.6l-45.8-0.7l-39.9-0.7c-6.4-0.1-12.8-0.2-19.2-0.3
		h-0.3c-1.1,0-3.4,0.3-3.5,1.9l-0.4,24.1l-0.1,3.4c0,0.6,1.1,0.8,1.4,0.8l15.9,0.2l37.9,0.6l45.9,0.7l39.8,0.6
		c6.4,0.1,12.8,0.2,19.2,0.3h0.3c1,0,2.6-0.2,3.2-1.2S434,339.2,433.1,339.2z"></path><rect class="st0" x="396.6" y="304.5" transform="matrix(1.500927e-02 -0.9999 0.9999 1.500927e-02 78.0273 731.8657)" width="27.7" height="43.7"></rect><path class="st0" d="M432.6,341l-44.7-0.7l0.4-28.7l44.7,0.7L432.6,341z M388.9,339.3l42.7,0.6l0.4-26.7l-42.7-0.6L388.9,339.3z"></path><path class="st2" d="M413.8,321.3c0,0-5-0.4-4.9,4.5s6,4.8,7.3,0.6S413.8,321.3,413.8,321.3z"></path><path class="st2" d="M404,326c2.4-2.5,5.6-4,9-4.5c0.6-0.1,1.3-0.1,1.9,0c-0.6,0-0.3-0.1-0.1,0c0.4,0.2,0.8,0.3,1.2,0.5
		c1.6,0.8,3,1.8,4.3,3c0.6,0.6,2.1,0.7,3,0.9c0.5,0.1,1,0.2,1.5,0.1c0.1,0,0.5,0,0.3-0.2c-3.7-3.6-8.8-5.2-13.8-5.5
		c-4.5-0.2-9,1.5-12.1,4.7c0.8,0.4,1.6,0.7,2.4,0.9C402,326,403.5,326.5,404,326L404,326z"></path><path class="st2" d="M295.9,320.6c0.3,1.5,0.3,3,0,4.5c-0.2,0.6-1,2.1-1.8,2l2.3,2.9c2.3-2,4.9-3.7,7.8-4.8c2.5-1,5.8-2,8.5-1.5
		c1,0.1,1.8,0.8,2,1.7c0.1,0.6-0.1,0.8-0.3,1.3l-0.1,0.1c-0.6,0.6,0.1,1,2.1,1c0.2-0.2,0.2-0.6,0.5-0.9c1.5-1.8,5.3-2.6,7.5-1.8
		c1.4,0.6,2.5,1.8,2.9,3.3c0.1,0.2,0.1,0.5,0.1,0.7c0,0.2,0,0.4,0,0.7c0.6-0.6,1.4-0.4,2.2,0.6c0-0.1,0-0.5,0-0.6
		c0.1-0.3,0.2-0.5,0.4-0.8c0.5-0.4,1-0.7,1.5-0.8c1.6-0.5,3-1.2,4.5-2c2-1.2,5.8-3.6,5.4-6.5c-0.4-3-5.1-3.9-7.1-2
		c-2.7,2.6,0.9,6.5,2.9,8.2c2.7,2.3,5.9,3.8,9.4,4.5c0.9,0.2,2.3-0.1,2.3-1.3s-1.6-1.9-2.5-2c-2.9-0.6-6.5-2.5-7.8-5.3
		c-0.3-0.7-0.1-1,0-1.6c-0.3,1.6,0.3-0.2,0.2-0.1l-1-0.4c-0.6-0.7-1-0.8-1.1-0.3c-0.3,0.4-0.5,0.9-0.9,1.2c-1.3,1.3-2.7,2.4-4.3,3.2
		c-1.6,0.9-3.6,1.2-5.1,2.3c-1.5,1-2.1,2.9-1.3,4.5c1.1,1.7,3.1,2.6,5.1,2.2c1.9-0.4,2.3-2.1,1.9-3.8c-0.8-3.6-4-6.2-7.4-7.1
		c-3.6-1-8.5-0.4-11.5,2.1c-1.2,1-2.1,2.7-1.2,4.2c1.1,1.7,3.1,2.5,5.1,2c1.6-0.5,2.6-2,2.5-3.7c-0.3-1.8-1.3-3.4-2.8-4.3
		c-3.8-2.8-9-2.1-13.3-0.8c-4.2,1.2-8.1,3.4-11.4,6.3c-1.4,1.2,1.4,2.7,2.3,2.9c2.2,0.4,4.3-0.5,5.6-2.3c1.3-2,1.1-4.4,0.8-6.7
		c-0.3-2-5.1-3.1-4.8-0.8L295.9,320.6z"></path><rect class="st1" x="129.4" y="1.3" transform="matrix(0.3725 -0.928 0.928 0.3725 14.8665 183.5775)" width="27.6" height="159.1"></rect><path class="st0" d="M213.8,122.1l-14.8-5.9l-35.2-14.1L121.3,85l-37-14.8l-12.1-4.9l-3.8-1.5c-0.6-0.3-1.3-0.6-2-0.8
		c-0.1,0-0.2-0.1-0.2-0.1l0.4,0.9l9-22.4l1.3-3.2l-4.4,1.2l14.8,5.9l35.2,14.1L165,76.6l37,14.8l12.1,4.9l3.8,1.5
		c0.6,0.3,1.3,0.6,1.9,0.8c0.1,0,0.2,0.1,0.2,0.1l-0.4-0.9l-9,22.4l-1.3,3.2c-0.4,1,1.5,1.2,2,1.2c1-0.1,2.4-0.5,2.8-1.5l9-22.4
		l1.3-3.2c0.1-0.4-0.1-0.7-0.4-0.9l-14.8-5.9l-35.2-14.1l-42.5-17.1l-37-14.8c-5.9-2.4-11.9-4.8-17.9-7.2l-0.2-0.1
		c-1.3-0.5-3.8-0.3-4.4,1.2l-9,22.5l-1.3,3.2c-0.1,0.4,0.1,0.7,0.5,0.9L77,71l35.2,14.1l42.6,17.1l37,14.8
		c5.9,2.4,11.9,4.8,17.9,7.2l0.2,0.1c1.1,0.4,2.4,0.3,3.4-0.3C213.9,123.7,214.9,122.6,213.8,122.1z"></path><rect class="st0" x="182.9" y="80.4" transform="matrix(0.3725 -0.928 0.928 0.3725 28.5549 246.693)" width="27.7" height="43.7"></rect><path class="st0" d="M212.1,123.9l-41.5-16.7l10.7-26.6l41.5,16.7L212.1,123.9z M171.9,106.6l39.6,15.9l9.9-24.8l-39.7-15.9
		L171.9,106.6z"></path><path class="st2" d="M201.6,98.7c0,0-4.5-2.2-6.2,2.4s3.9,6.6,6.6,3.2S201.6,98.7,201.6,98.7z"></path><path class="st2" d="M191,98.9c1.8-0.8,3.7-1.3,5.6-1.4c0.4,0,0.9,0,1.3,0s-0.1-0.1,0,0c0.6,0.3,1.2,0.5,1.8,0.8
		c2.8,1.6,5,4.1,6.2,7c0.3,0.6,1.8,0.7,2.4,0.8c0.8,0.1,1.7,0.2,2.5,0.1c-1.7-3.8-4.8-6.8-8.8-8.3c-5-1.9-10.8-2.3-15.8-0.2
		c-0.4,0.2,1.5,0.8,1.6,0.8c0.6,0.2,1.3,0.3,1.9,0.3C190.2,99,190.6,99,191,98.9L191,98.9z"></path><path class="st2" d="M84.9,60.8c4.1,0.4,8.3,0.2,12.4-0.7c0.3-0.1,0.2-0.5,0.1-0.6c-1.5-2.7-7.7-5.1-8.2-0.4c-0.4,3.9,4,6.8,7.1,8
		c1.9,0.7,3.9,0.9,5.9,0.7c1.8-0.2,4.3-0.4,5.8-1.6c3.3-2.6-3.4-7.2-6-4.9c-1.2,1.1-1.1,3-0.5,4.4c0.9,1.8,2.3,3.3,4.1,4.2
		c3.8,2,8.1,2.9,12.4,2.5c1.3-0.1,3.3-0.4,3.4-2.1c0-1.9-2.4-3.3-3.9-3.8c-1.8-0.6-2.9,0.5-2.6,2.3c0.3,1.8,1.3,3.4,2.6,4.6
		c3.5,3.4,8.3,4.9,13.1,4.1c1.8-0.3,3.9-1,4.7-2.7c0.7-1.7,0.1-3.7-1.4-4.7c-0.5-0.4-2.9-2.2-3.6-1.3c-1.7,2.2-1.4,5.2-0.1,7.6
		c1.5,2.8,4.2,4.7,6.6,6.6c0.6,0.4,2.2,1.5,2.9,1.1s-0.8-1.5-1-1.7c-1.8-1.3-3.6-2.8-4.6-4.8c-1-2-0.8-4.4,0.5-6.2l-3.6-1.3
		c0.3,0.3,0.2,1.4,0.1,1.8c-0.2,0.8-0.8,1.5-1.5,1.9c-1.6,0.9-3.5,1.3-5.4,1.2c-1.5,0-3-0.1-4-1.4c-0.5-0.7-0.8-1.5-1-2.4
		c-0.1-0.4-0.1-0.7-0.1-1.1c0.2-0.7,0.8-0.7,0-1l-1.7-0.9c-1.1-0.7-0.4-0.6-0.5,0.2c-0.1,0.4-0.3,0.7-0.7,0.9
		c-0.6,0.3-1.3,0.5-2,0.4c-2.1,0.1-4.2-0.1-6.3-0.5c-0.4-0.1-0.8-0.2-1.2-0.3c-0.2-0.1-0.6-0.4-0.4-0.1c-0.4-0.5-0.7-1-0.9-1.6
		c-0.2-0.7-0.2-1.5,0.1-2.3c0.1-0.3,0.3-0.6,0.5-0.8c0.9-0.9,1.4,0.1-0.4-1l-1.4-1.1c0.6,0.6-0.6,1.7-1,1.9
		c-0.8,0.4-1.6,0.6-2.5,0.8c-1.9,0.4-4,0.8-5.9,0.3c-0.2,0-0.3-0.1-0.5-0.2c0.3,0.2-0.1-0.1-0.2-0.3c-0.4-0.5-0.7-1.2-0.8-1.8
		c-0.2-0.7-0.1-1.5,0.3-2.2c0.2-0.3,0.4-0.6,0.7-0.8c0.2-0.1,0.3-0.2,0.5-0.2c1.1-0.1,0.4-0.5-1.9-1.2l0.1-0.6
		c-3.9,0.8-7.8,1-11.8,0.7c-1.1-0.1,0,1.1,0.2,1.3C82.7,60.1,83.8,60.7,84.9,60.8L84.9,60.8z"></path><path class="st0" d="M368.6,105.1c-4.4-14.2-15.1-26-28.2-32.8c-6.7-3.5-13.9-5.8-21.4-6.6c-3.7-0.4-7.5-0.4-11.2,0
		c-3.9,0.3-7.6,1.4-11,3.3c-3,1.8-5.5,4.7-5.9,8.3c-0.2,3.2,1,6.4,3.4,8.6c2.6,2.3,6.7,3.2,9.8,1.2c2.9-2,4.4-5.5,3.9-9
		c-0.6-4.3-3.6-7.7-6.7-10.5c-3-2.7-6.1-5.1-9.5-7.3c-6.7-4.3-14.1-7.6-21.8-9.8c-15.3-4.4-31.6-4.1-46.7,1
		c-1.9,0.7-3.8,1.3-5.6,2.2c-1.1,0.5-0.7,1.8,0,2.4c0.9,0.9,2.2,1.1,3.4,0.7c12.9-5.4,27.1-7,40.9-4.6c13.5,2.3,26.7,8.3,36.7,17.9
		c2.4,2.3,4.8,5.4,4.6,8.9c-0.1,2.4-1.7,5.8-4.5,5.8c-0.2,0-0.4-0.1-0.6-0.1c0.2,0-0.1-0.1-0.1-0.1c-0.4-0.2-0.7-0.5-0.9-0.8
		c-0.8-0.9-1.3-2.1-1.5-3.2c-0.5-3,0.9-5.6,3.2-7.4c2.5-2.1,5.9-3,9.1-3.5c3.2-0.5,6.4-0.6,9.6-0.4c6.3,0.4,12.5,2,18.2,4.7
		c11.8,5.4,21.2,14.9,26.4,26.7c0.6,1.5,1.2,3.1,1.7,4.6C364.5,107.1,369.4,107.8,368.6,105.1L368.6,105.1z"></path><path class="st0" d="M199.7,52c5.3-3.3,11.5-4.9,17.8-4.5c0.7,0,2.2-0.1,2-1.1s-2.1-1.4-2.9-1.4c-7.3-0.5-14.6,1.2-20.9,5
		c-0.9,0.6-0.1,1.4,0.6,1.8C197.2,52.2,198.8,52.6,199.7,52L199.7,52z"></path></g><g id="character"><path class="st2" d="M85.1,447c0.1-2.3,0.4-4.5,0.9-6.7c0.7-4.1,1.5-8.1,2.4-12.2c2.1-10.2,4.4-20.3,6.8-30.4
		c0.6-2.4,1.1-4.7,1.7-7c0.3-1.1,0.5-2.1,0.8-3.2c0.1-0.5,0.2-1,0.4-1.5s-0.1,0.2,0.1-0.3c0.1-0.2,0.1-0.5,0.2-0.8
		c0.7-2.8,1.4-5.6,2.3-8.3c0.1-0.3,0.2-0.7,0.4-1c0-0.1,0.1-0.2,0.1-0.3c-0.1,0.1-0.2,0.3-0.3,0.5c-0.2,0.3-0.2,0.2,0,0
		c0.4-0.3-0.5,0.2-0.1,0.1s0.6-0.2,0.9-0.3c2.4-0.7,4.9-1.3,7.4-1.7c8.8-1.8,17.4-3,26.2-4.2c10.2-1.4,20.5-2.5,30.8-3.3
		c4.3-0.3,8.6-0.6,12.9-0.6c1.7,0,3.4,0,5,0.1c0.7,0,1.4,0.1,2.1,0.1l0.6,0.1l0.6,0.1c0.5,0.1,0.9,0.2,1.4,0.3
		c0.1,0,0.7,0.3,0.3,0.1s0.1,0.1,0.2,0.1c0.4,0.2-0.4-0.4,0.1,0c0.2,0.2,0.4,0.4,0.6,0.6c0.4,0.3-0.3-0.5-0.1-0.1
		c0.1,0.1,0.2,0.2,0.3,0.3c0.2,0.3,0.4,0.6,0.6,0.9c0.4,0.6,0.8,1.3,1.2,2c0.1,0.2,0.3,0.5,0,0.1l0.3,0.5c0.2,0.4,0.4,0.8,0.6,1.2
		c0.9,1.9,1.7,3.9,2.4,5.9c3.7,10.4,6.8,21,9.2,31.8c2.4,10,4.4,20,5.8,30.2c0.2,1.5,0.4,3.1,0.5,4.6c0.2,2.9,4.7,3.2,4.5,0
		c-0.6-9.1-2.6-18.2-4.5-27.1c-2.4-11.6-5.4-23.1-9-34.4c-1.4-4.4-3-8.7-5-12.9c-1.3-2.7-2.9-6.1-5.7-7.7c-2-1.2-4.7-1.3-7-1.4
		c-3.7-0.2-7.3-0.1-11,0.1c-10.1,0.5-20.1,1.5-30.1,2.8s-19.9,2.6-29.8,4.3c-3.3,0.6-6.7,1.2-10,2c-1.6,0.4-3.7,0.7-5,1.7
		s-1.8,3.8-2.2,5.4c-1,3.8-2,7.6-2.9,11.4c-2.5,10.2-4.8,20.4-7,30.6c-1.7,8-3.6,16-4.7,24.1c-0.1,0.8-0.2,1.7-0.2,2.5
		c-0.1,1.3,0.7,2.5,2,2.9c1.1,0.3,2.2-0.4,2.4-1.4C85.1,447.3,85.1,447.1,85.1,447z"></path><path class="st1" d="M173.8,296.2l-38.3-37.3c27.3-115.5,163.2-128.7,163.2-128.7c10.9-4.2,26.6-25.9,32.3-24.5
		s-11.2,20.8-11.2,20.8s26.1-18.7,28.3-11.5S323.7,137,323.7,137c13.1-3.4,31.7,0.3,31.9,7.9s-10.1,3.3-21.4,2.3
		s-14.3,16.6-4.1,16.6s27-11.1,25-1.5s-28.9,15.5-49.4,12.2C305.8,174.5,218,184.6,173.8,296.2z"></path><path class="st2" d="M176,296.1l-12.9-12.6l-20.7-20.1l-4.7-4.6l0.2,0.6c3.1-13.5,8.1-26.5,14.8-38.7c6.1-11,13.6-21.1,22.3-30.2
		c8.1-8.4,17-16,26.6-22.5c9-6.1,18.4-11.4,28.2-16c8.7-4.1,17.6-7.6,26.7-10.6c7.4-2.4,15-4.5,22.6-6.3c5.1-1.2,10.3-2.2,15.5-3
		l2.4-0.4l1-0.1l0.4-0.1c0.3,0-0.7,0.1-0.1,0c1.1-0.1,2.1-0.3,3.1-0.7c5.8-2.6,10.6-7.5,15.1-11.8c2.5-2.3,4.9-4.7,7.4-7
		c1.8-1.7,3.7-3.3,5.8-4.5c0.4-0.2,0.8-0.4,1.2-0.5c-0.4,0.1,0.1,0,0.2,0c0.1,0,0.2,0,0.2,0c-0.3,0.1-0.2,0.1-0.5,0
		c0.2,0-0.5-0.1-0.6-0.2c-0.4-0.2-0.5-0.4-0.8-0.5c0.2,0.1,0,0,0.1,0.1s0.1,0.3,0.1,0.5c0,0.7-0.2,1.4-0.4,2
		c-0.3,0.9-0.8,1.8-1.2,2.7c-2.5,4.3-5.4,8.3-8.6,12c-0.6,0.8-1.3,1.6-1.9,2.3s0.8,1.6,1.4,1.8c1,0.5,2.2,0.4,3.2-0.1l0.2-0.1
		c-0.4,0.3,0,0,0.2-0.2c0.6-0.4,1.2-0.8,1.8-1.2c1.9-1.3,3.9-2.6,5.8-3.8c4.4-2.7,9.3-5.7,14.1-7c0.4-0.1,0.9-0.2,1.3-0.3
		s-0.2,0,0.3,0c0.1,0,0.9,0,0.5,0s1,0.2-0.2,0c0.6,0.1-0.4-0.1-0.1,0c-0.2-0.1-0.3-0.1-0.5-0.2c0.3,0.2-0.1-0.1-0.1-0.1
		s0.2,0.2,0.2,0.2s0-0.2,0.1,0.2c0.1,0.2,0.1,0.3,0.1,0.5c0.1,0.3,0.1,0.7,0,1c-0.2,0.8-0.5,1.6-1,2.3c-3,4.5-7.9,7.9-12.3,10.8
		c-3.4,2.3-7,4.6-10.6,6.6c-0.9,0.5-0.3,1.2,0.3,1.6c1,0.6,2.1,0.8,3.2,0.6c7.3-1.9,15.9-1.8,22.8,0.9c1.9,0.8,4.4,2.1,5,4.5
		c0.3,1.1,0.2,2.3-0.5,3.3c-0.7,0.8-1.7,1.2-2.7,1.1c-3.7,0.1-8.1-1-12-1.6c-3.7-0.5-7.6-1.1-11,0.8c-4.2,2.4-6.9,8.4-4.8,13
		c3.1,6.6,12.1,4.9,17.6,3.2c3.4-1,6.6-2.2,10-3.2c1.1-0.3,2.3-0.6,3.5-0.7c0.5,0-0.2-0.1,0,0s0.1,0.1,0.1,0s-0.3,0-0.6-0.2
		s-0.2-0.2-0.2-0.1c0.1,0.3,0.1,0,0.2,0.4c0.6,2.1-0.8,4.3-2.2,5.8c-2.2,2-4.9,3.6-7.7,4.5c-7.6,3-16.1,4.1-24.2,4.2
		c-2.2,0-4.4,0-6.6-0.2c-2.2-0.1-4.4-0.6-6.6-0.8c-0.5,0-1,0-1.6,0.1c-1.1,0.2-2.2,0.4-3.3,0.6c-5.3,1.1-10.5,2.5-15.6,4.3
		c-8.2,2.8-16.1,6.2-23.6,10.3c-10.1,5.4-19.6,11.9-28.4,19.2c-10.9,9-20.7,19.2-29.3,30.4c-10.5,13.6-19.4,28.3-26.7,43.9
		c-2,4.4-3.9,8.8-5.7,13.2c-0.6,1.4,4.2,2.7,4.9,1.1c6.7-17.1,15.4-33.4,25.8-48.6c8.5-12.3,18.4-23.5,29.4-33.6
		c8.9-8.1,18.7-15.2,29.1-21.3c8-4.6,16.3-8.6,25-11.8c3.3-1.2,5.9-2.1,9.5-3.1c2.4-0.7,4.8-1.3,7.2-1.8c1.4-0.3,2.8-0.6,4.3-0.8
		c0.3,0,0.6-0.1,0.9-0.1c0.1,0-0.7,0.1-0.5,0.1l0,0l-0.9-0.1c0.4,0.1,0.9,0.2,1.4,0.2c2.2,0.3,4.4,0.5,6.7,0.7
		c9.1,0.6,18.2-0.3,27-2.6c3.5-0.9,6.9-2.2,10.1-3.9c2.4-1.2,4.5-3.1,5.9-5.4c1-2,1.4-4.7-0.5-6.2c-2.4-1.9-6-1.5-8.7-0.8
		c-3.4,0.9-6.7,2.1-10.1,3.2c-1.7,0.5-3.5,1-5.2,1.4c-0.7,0.1-1.4,0.2-2.1,0.3c-0.4,0-0.8,0.1-1.2,0.1c0.3,0,0,0-0.1,0
		c-0.7,0,0.5,0.1-0.2,0c-0.5-0.1-0.1,0,0,0s-0.6-0.2-0.3-0.1s-0.7-0.4-0.3-0.1c-0.4-0.3-0.7-0.6-0.9-1c-0.6-0.9-0.9-1.9-1-3
		c-0.2-2.5,0.6-5,2.1-6.9c0.8-1,1.8-1.8,2.9-2.4c1.1-0.5,2.4-0.8,3.6-0.6c4.5,0.4,8.9,1.4,13.4,1.9c2.7,0.3,7,0.6,8.8-1.9
		c1.6-2.2,0.8-5.3-0.9-7.1c-2.3-2.5-5.6-4-8.8-4.9c-4.2-1.2-8.6-1.9-13-1.9c-4.2-0.1-8.3,0.3-12.3,1.3l3.5,2.2
		c3.3-1.9,6.6-3.9,9.8-6c2.7-1.8,5.4-3.7,7.9-5.8c2.2-1.7,4.2-3.7,5.8-6c1-1.5,2-3.5,1.1-5.4c-1.1-2.3-4.3-2.8-6.5-2.7
		c-2.6,0.3-5,1-7.4,2.2c-2.7,1.2-5.3,2.6-7.9,4.1c-3.8,2.2-7.5,4.6-11.1,7.2l4.6,1.7c3.2-3.6,6.1-7.4,8.7-11.3
		c1.5-2.2,3.2-4.7,3.7-7.4c0.6-3-2.5-4.4-5.2-4.3c-2.8,0.1-5.2,2.1-7.3,3.8c-3.1,2.5-5.9,5.4-8.8,8.1c-3.1,3-6.3,5.9-9.6,8.7
		c-1.4,1.2-3,2.2-4.5,3.1c-0.4,0.2-0.7,0.4-1.1,0.5c-0.4,0.1-0.7,0.3-1,0.4c0.4-0.7,1-0.1,0.7-0.1c-1.2,0.1-2.3,0.2-3.5,0.4
		c-2.4,0.3-4.8,0.7-7.2,1.1c-19.7,3.6-38.9,9.5-57.2,17.6c-12.4,5.5-24.3,12.3-35.4,20.2c-12.1,8.6-23,18.8-32.4,30.4
		c-10.3,12.9-18.4,27.3-24,42.9c-1.5,4.3-2.9,8.6-4,13c-0.3,1.1-0.6,2.1-0.8,3.2c-0.2,0.4-0.2,0.9,0.1,1.3c0.2,0.3,0.5,0.5,0.8,0.8
		l9.9,9.6l25.9,25.2l1.7,1.7c0.9,0.8,2.1,1.2,3.2,1.1C175.4,297.4,176.9,296.9,176,296.1z"></path><path class="st2" d="M208,373.5c0,0-32.8-140.5-68.3-139.3S83.2,365.6,82.3,378.2S172.3,416.4,208,373.5z"></path><path class="st2" d="M210.2,373.1c-0.5-2.1-1-4.3-1.6-6.4c-1.4-5.6-2.9-11.3-4.5-16.9c-2.2-7.9-4.5-15.8-7-23.6
		c-2.9-9.1-5.9-18.2-9.2-27.1s-6.8-17.7-10.8-26.2c-3.5-7.8-7.7-15.3-12.4-22.4c-3.7-5.5-8-10.9-13.5-14.7
		c-4.4-3.1-9.8-4.8-15.2-3.5c-5.9,1.5-10.7,5.6-14.4,10.2c-4.8,6.2-8.9,12.9-12,20.1c-3.9,8.6-7.3,17.5-10.1,26.5
		c-3,9.4-5.6,18.9-8,28.4c-2.2,8.9-4.2,17.8-5.9,26.8c-1.4,7.1-2.7,14.1-3.8,21.2c-0.6,4-1.4,8.2-1.7,12.3c-0.3,4.8,4.9,8,8.5,10
		c6.5,3.6,13.8,5.9,21,7.7c9.4,2.3,19.1,3.8,28.8,4.2c10.6,0.6,21.2-0.1,31.6-2.2c10.3-2,20-6.1,28.6-11.9
		c4.1-2.9,7.8-6.3,11.1-10.1c0.8-1,0.8-2.5,0-3.4c-0.7-0.8-2.3-1.4-3.2-0.4c-6.5,7.6-14.7,13.4-24,17c-9.5,3.6-19.5,5.7-29.7,6.2
		c-10,0.6-20.1,0.1-30-1.5c-8.3-1.2-16.5-3.2-24.4-6.1c-1.6-0.6-3.2-1.2-4.7-1.9c-0.7-0.3-1.4-0.7-2.1-1c-0.3-0.2-0.6-0.3-0.9-0.5
		s-0.3-0.2-0.5-0.2s-0.6-0.3-0.3-0.1l-0.6-0.4c-0.3-0.2-0.6-0.4-0.9-0.5c-0.5-0.3-1-0.6-1.4-1s-0.8-0.7-1.2-1s0.4,0.4-0.1-0.1
		l-0.5-0.5l-0.3-0.5c-0.4-0.6,0.2,0.5,0,0c-0.1-0.1-0.2-0.3-0.2-0.5c-0.3-0.6,0.2,0.6,0,0.1c0,0-0.1-0.4-0.1-0.4c0.4,0,0,0.8,0,0.4
		c0-0.1,0-0.2,0-0.3l0.1-0.7c0.1-0.7,0.2-1.4,0.2-2.1c0-0.4,0.1-0.9,0.2-1.3c0-0.2,0.1-0.5,0.1-0.7s-0.1,0.6,0,0.2l0.1-0.5
		c0.8-5.8,1.8-11.6,2.8-17.4c1.5-8.2,3.1-16.3,4.9-24.4c2.1-9.3,4.4-18.5,7-27.7s5.5-18.4,8.9-27.3c2.9-7.8,6.4-15.4,10.6-22.6
		c0.9-1.6,1.9-3.1,3-4.6c0.5-0.7,1-1.4,1.6-2.1l0.3-0.4c-0.3,0.4,0.1-0.1,0.2-0.2c0.3-0.3,0.5-0.6,0.8-1c1.9-2.3,4.1-4.4,6.5-6.2
		c-0.5,0.4,0.2-0.1,0.4-0.3s0.6-0.4,0.9-0.5c0.6-0.3,1.1-0.6,1.7-0.9c0.6-0.3,1.2-0.5,1.8-0.7c0.1,0-0.5,0.1,0,0l0.4-0.1
		c0.3-0.1,0.6-0.1,0.9-0.2c0.6-0.1,1.2-0.2,1.8-0.3h0.6c-0.4,0,0.5,0,0.7,0c0.6,0,1.1,0.1,1.6,0.2c0.3,0,0.5,0.1,0.8,0.2l0.2,0.1
		l0.3,0.1c1.1,0.4,2.3,0.8,3.3,1.4c0.7,0.4-0.2-0.1,0.4,0.2l0.9,0.6c0.6,0.4,1.1,0.8,1.7,1.2s1.1,0.9,1.6,1.3l0.8,0.7
		c0.1,0,0.5,0.5,0.2,0.2s0.2,0.2,0.3,0.3c1.1,1.1,2.2,2.3,3.2,3.5s2.2,2.6,3.2,4c0.5,0.7,1.1,1.5,1.6,2.2l0.7,1.1l0.4,0.6
		c0.1,0.1,0.1,0.2,0.2,0.3c2.2,3.4,4.2,6.8,6,10.4c4.2,8,7.9,16.1,11.2,24.5c1.8,4.4,3.5,8.8,5.1,13.3c1.5,4.1,3,8.3,4.5,12.8
		c2.8,8.3,5.4,16.7,7.9,25.1c1.9,6.7,3.8,13.3,5.6,20c1,3.9,2,7.7,2.9,11.6c0.1,0.5,0.2,1,0.4,1.5c0.3,1.3,1.4,2.2,2.7,2.1
		C209.8,375.5,210.5,374.3,210.2,373.1z"></path><path class="st1" d="M82.5,253.3c0,0,102.6-3.8,119.4-31.7c0,0-25.2-71-41.8-78.8c-29.6-13.9-71.7,7.3-75.8,26.9
		C76.1,210,82.5,253.3,82.5,253.3z"></path><path class="st2" d="M81.9,255.3c5.7-0.2,11.5-0.6,17.2-1.1c12.7-1,25.3-2.4,37.9-4.5c13.9-2.3,27.9-5.1,41.1-10
		c5.6-2,11-4.6,16.1-7.8c2.2-1.4,4.2-3,6.1-4.9c0.9-0.9,1.7-1.9,2.5-2.9c0.7-1,1.9-2.2,1.5-3.5c-0.6-2.1-1.6-4.2-2.3-6.3
		c-1.9-5.1-3.9-10.2-6-15.2c-5.4-13.2-11.2-26.4-18.3-38.8c-2.9-5.1-6.1-10.3-10.1-14.6c-1.4-1.6-3.1-3-4.9-4.2
		c-3.7-2-7.7-3.4-11.8-4.1c-18.1-3.7-38.1,1.5-53.1,12c-6.1,4.3-11.8,9.8-14.7,16.7c-0.6,1.7-1.1,3.4-1.4,5.2
		c-0.6,3-1.1,6.1-1.5,9.2c-0.9,6.2-1.5,12.4-1.9,18.6c-1.1,17.3-0.6,34.7,1.5,51.9c0.1,0.9,0.2,1.8,0.3,2.7c0.2,1.1,1.2,1.8,2.3,1.7
		c0.1,0,0.1,0,0.2,0c1-0.1,2.6-1.1,2.4-2.4c-0.7-5-1.2-10.1-1.5-15.1c-0.9-12.1-1.1-24.2-0.5-36.3c0.4-7.2,1-14.4,2-21.6
		c0.5-3.5,1-7,1.9-10.5c0.4-1.7,1-3.3,1.9-4.8c4.3-7.7,12.2-13.3,20.1-17.1c9.7-4.9,20.6-7.4,31.5-7.2c5.4,0.1,10.8,1.2,15.8,3.1
		c1.5,0.5,2.8,1.2,4.1,2c0.5,0.3,0.9,0.7,1.4,1.1c-0.4-0.4,0.3,0.3,0.4,0.4c0.3,0.3,0.6,0.5,0.8,0.8c4.8,4.9,8.4,11.1,11.6,17
		c4.2,7.6,7.9,15.6,11.4,23.5c4.8,11,9.3,22.2,13.4,33.6l0.2,0.6l0.2-1.6c-0.4,0.7-0.9,1.4-1.4,2c-0.2,0.2,0.3-0.3,0.1-0.1l-0.1,0.2
		l-0.4,0.5c-0.3,0.3-0.6,0.7-0.9,1c-0.6,0.7-1.3,1.3-1.9,1.8l-0.5,0.4c-0.5,0.4,0.1-0.1-0.2,0.2s-0.8,0.6-1.2,0.9
		c-1.6,1.2-3.4,2.3-5.1,3.3c-0.4,0.2-0.9,0.5-1.3,0.7L186,232l-0.4,0.2c-1,0.5-2,1-3.1,1.4c-4.5,1.9-9.1,3.6-13.9,5
		c-5.2,1.6-9.7,2.7-15.1,3.9c-10.6,2.3-21.2,4-32,5.4c-8.8,1.1-17.6,2-26.4,2.6c-4.2,0.3-8.4,0.6-12.6,0.8H83
		c-1.3-0.1-2.5,0.6-3,1.9c-0.3,0.9,0.3,1.9,1.2,2.2C81.5,255.3,81.7,255.3,81.9,255.3z"></path><path class="st2" d="M96,197.2c7.8-4.9,15.6-10,22.1-16.6c5.7-5.8,10.4-12.9,11.6-21.1c0.3-1.8-4-4.3-4.3-2.2
		c-1.2,8-5.7,14.8-11.3,20.4c-6.3,6.4-13.9,11.4-21.5,16.1C90.7,194.9,94.4,198.1,96,197.2L96,197.2z"></path><path class="st2" d="M90.1,192.7c10.2-10.4,20.8-21.6,24.2-36.2c0.6-2.7-3.8-4.4-4.5-1.3c-3.1,13.8-13.8,24.4-23.3,34.1
		C84.6,191.3,88.1,194.8,90.1,192.7z"></path><path class="st1" d="M186.6,216.5c9.6-18.9-23.2-57.6-23.2-57.6c-8.3,0.9-23.6-2.6-23.6-2.6c11.3,22.7-14.9,37.9-14.9,37.9
		c-9.6-11.2-23.4-2-18.7,10.4s17.2,10.1,17.2,10.1s3.1,33.1,5.8,37.8c0,0,24.9,8.2,32.3-13.9C161.7,238.6,180.1,229.3,186.6,216.5z"></path><path class="st2" d="M189,216.7c2.8-5.5,2-11.9,0.4-17.7c-2.1-6.9-5.1-13.4-8.9-19.6c-3.2-5.3-6.6-10.5-10.4-15.4
		c-1.1-1.5-2.2-2.9-3.4-4.3c-0.3-0.3-0.5-0.7-0.8-1c-0.9-1-2.5-0.9-3.8-0.8c-0.6,0.1-1.9,0.1-2.9,0.1c-1.1,0-2.1-0.1-3.3-0.2
		c-2.4-0.2-4.8-0.5-7.2-0.9c-2.6-0.4-5.2-0.9-7.8-1.5c-0.6-0.1-4.4-0.2-3.7,1.1c3.6,7,3.5,15.4-0.2,22.4c-2.8,5-6.7,9.4-11.4,12.7
		c-1,0.7-2,1.4-3,2l4.6,0.2c-3.4-4.1-8.7-6.3-14-5.6c-4.3,0.6-8.2,3.1-9.8,7.3c-1.7,4.6-0.2,9.9,2.7,13.7c2.5,3.2,6.1,5.4,10.2,6.1
		c2.7,0.6,5.6,0.6,8.3,0.2l-3.8-0.8c1,10.7,2,21.6,4.2,32.2c0.2,1.2,0.5,2.4,0.8,3.5c0.2,0.8,0.4,1.6,0.9,2.4c0.6,0.8,2.5,1,3.5,1.2
		c5.4,1.3,11,1.3,16.4,0.3c8.2-1.4,14.9-7.4,17.3-15.4l-0.6,0.4c7.3-3.7,14-8.6,19.7-14.5C185.5,222.3,187.5,219.6,189,216.7
		c0.7-1.3-4.1-1.8-4.8-0.6c-3.2,6.2-8.5,11.1-14.1,15.2c-2.2,1.7-4.6,3.2-6.9,4.6c-0.8,0.5-1.6,0.9-2.4,1.4l-0.7,0.4l-0.3,0.2
		c0.4-0.2-0.4,0.2-0.6,0.4c-0.4,0.9-0.8,1.7-1.1,2.7c-0.7,1.5-1.5,2.9-2.4,4.2c-1.6,2.2-3.7,4.1-6.1,5.4c-1,0.6-2.1,1-3.1,1.4
		c-0.5,0.2-0.9,0.3-1.5,0.4l-0.9,0.2l-0.5,0.1c-0.6,0.1-1.1,0.2-1.7,0.2l-0.9,0.1c-0.1,0-0.4,0-0.1,0h-0.3c-0.6,0-1.1,0-1.6,0h-0.7
		c-0.1,0-0.3,0-0.4,0c-1.1-0.1-2.1-0.2-3.1-0.3c-0.6-0.1,0.2,0.1-0.2,0l-0.6-0.1l-1.1-0.2c-0.5-0.1-1.1-0.3-1.6-0.4
		c-0.3-0.1-0.7-0.3,0,0c-0.1,0-0.1,0-0.2,0l0.6,0.4c-0.8-1.7-1.3-3.6-1.6-5.5c-0.6-3.1-1.1-6.2-1.5-9.3c-0.9-6.2-1.6-12.4-2.2-18.6
		c-0.1-1.4-0.3-2.8-0.4-4.2s-3-1-3.8-0.8c1.2-0.2,0.5-0.1,0.2,0s-1.1,0.1-0.4,0h-1.3c-0.7,0,0.3,0-0.3,0l-1-0.1l-0.4-0.1
		c0.5,0.1,0,0-0.1,0c-0.3-0.1-0.6-0.1-0.9-0.2c-0.6-0.2-1.3-0.4-1.8-0.6c-1.4-0.6-2.7-1.5-3.8-2.6c-5-4.9-7.2-15.6,0.3-19.5
		c0.7-0.4,1.4-0.6,2.1-0.7c0.2,0,0.5,0,0.7,0c0.4,0,0.8,0.1,1.2,0.2c2.2,0.8,4.2,2.2,5.7,4.1c1,1.1,3.4,0.9,4.6,0.2
		c3.1-1.9,6-4.2,8.5-6.8c4.8-4.8,8.7-11,9.4-17.9c0.4-4.8-0.5-9.7-2.8-14l-3.7,1.1c3.1,0.7,6.3,1.3,9.4,1.8c5.3,1,10.7,1.3,16.1,0.9
		l-3.1-0.7c3.7,4.5,7.2,9.1,10.4,14c5.8,8.7,11.4,18.2,13.7,28.5c1,4.8,1.4,10.1-0.9,14.6C183.6,217.5,188.4,218,189,216.7z"></path><path class="st1" d="M162.7,185.8c5.5,2.1,11.3,3.4,17.2,3.9c19.9,1.8,22.6,8.5,16.9,12.8s-32.7,3.3-32.7,3.3"></path><path class="st2" d="M163.8,187.2c5.6,2.4,11.9,3.4,17.8,4c4.2,0.3,8.3,1.1,12.3,2.4c0.6,0.2,1.3,0.5,1.8,0.7l0.7,0.4l0.2,0.1
		c-0.2-0.1,0.2,0.1,0.2,0.2c-0.5-0.4-0.2-0.1-0.1-0.1c0.4,0.3-0.1-0.1-0.1-0.1c0.1,0.1,0.2,0.1,0.2,0.2c-0.3-0.5-0.1-0.1-0.1-0.1
		c0.1,0.3,0,0,0,0c0.1,0.1,0.2,0.2,0.2,0.3c0.1,0.1,0.1,0.2,0.1,0.3c1.3,3.2-2.5,5.8-5.2,6.6c-5.4,1.6-11.4,1.8-17.1,2
		c-4.2,0.1-8.4,0.1-12.6,0c-0.8,0,0.8,1.6,0.9,1.7c0.7,0.8,1.7,1.3,2.7,1.5c3.8,0.1,7.6,0.1,11.4,0c6-0.1,12.4-0.2,18.2-1.9
		c3.1-0.9,7.2-3.6,5.7-7.4c-1-2.6-3.7-4.5-5.9-5.7c-3.2-1.7-6.6-2.8-10.2-3.4c-7.8-1.4-16-1.4-23.4-4.6c-0.8-0.4-1.1,0.1-0.6,0.8
		C161.8,186.1,162.7,186.8,163.8,187.2L163.8,187.2z"></path><path class="st2" d="M150.9,182.5c0,0,3.1-0.4,3.2,2.6s-3.6,3.2-4.5,0.7c-0.6-1.1-0.2-2.5,1-3.1
		C150.7,182.6,150.8,182.5,150.9,182.5z"></path><path class="st2" d="M169.4,176.8c0,0,3.1-0.4,3.2,2.6s-3.6,3.2-4.5,0.7c-0.6-1.1-0.2-2.5,0.9-3.1
		C169.1,176.9,169.2,176.9,169.4,176.8z"></path><path class="st2" d="M109,222.2c0.8,8.7,1.4,17.4,1.6,26.1c0,1.6,4.7,0,4.6-1.4c-0.2-8.7-0.8-17.4-1.6-26.1
		C113.5,219.1,108.9,220.8,109,222.2L109,222.2z"></path><path class="st2" d="M95.1,231.6l-5.2,13.8c-0.4,1.1,0.4,2.6,1.2,3.2s1.8,0.8,2.2-0.3l5.2-13.8c0.4-1.1-0.4-2.6-1.2-3.2
		S95.5,230.5,95.1,231.6L95.1,231.6z"></path><path class="st2" d="M89.8,216.8c1.1,0,2.2-0.2,3.2-0.6c1.6-0.5,3.2-1.1,4.7-1.8c3.5-1.4,6.8-3.4,9.6-5.9c0.6-0.6-2.9-4.1-3.7-3.3
		c-2.8,2.4-6,4.4-9.4,5.8c-1.5,0.7-3,1.2-4.6,1.7c-1,0.4-2.1,0.6-3.2,0.6c-0.8,0,0.6,1.7,0.7,1.8C87.7,215.8,88.8,216.8,89.8,216.8z
		"></path><path class="st2" d="M141.1,204.8c-0.3,2.2,0.4,4.3,1.9,5.9c2,2.1,4.7,3.4,7.6,3.5c0.3,0,0.9-0.1,1-0.4c0.1-0.4,0-0.8-0.3-1.1
		c-0.8-0.9-2-1.5-3.2-1.5h-0.2c0.4,0,0.4,0,0.2,0l-0.4-0.1c-0.6-0.1,0.4,0.1,0.1,0l-0.3-0.1c-0.4-0.1,0.7,0.3,0.1,0
		c-0.2-0.1-0.6-0.4,0.1,0.1l-0.4-0.2l-0.2-0.1c0.3,0.2,0.4,0.3,0.3,0.2l-0.3-0.2l-0.2-0.2c0.2,0.2,0.3,0.3,0.1,0.1l-0.3-0.3
		l-0.1-0.2c-0.1-0.1-0.1-0.1,0,0s0.1,0.1,0,0l-0.1-0.2l-0.2-0.4c-0.1-0.3-0.2-0.6-0.3-0.9l0.1,0.4c-0.3-0.9-0.3-1.9-0.2-2.9
		c0.1-0.4-0.5-0.9-0.7-1.1c-0.5-0.4-1.1-0.7-1.7-0.9c-0.5-0.2-1.1-0.2-1.6-0.1l-0.3,0.1C141.2,204.2,141.1,204.5,141.1,204.8
		L141.1,204.8z"></path><path class="st1" d="M165,354l64-20.6c0.8-0.9,18-19.2,29.8-24.7s36.8-1.5,35.2,4.7s-17.9,1.2-27.5,7.7c0,0,16.9,2.4,23.6,4.2
		c7.5,2,6.2,9.2-0.9,8.9c-6.5-0.1-12.9,0.6-19.3,1.8c0,0,11.9,2.4,18.2,2.9s8.1,9.1-3,10.5s-17.2,4.3-17.2,4.3s-27.8,22.4-39.4,16.6
		c0,0-56.4,46.2-96.8,36.3s-45.2-127.3-18.8-142S165,354,165,354z"></path><path class="st2" d="M166.8,355.6l21.7-7l34.4-11l5.3-1.7c0.9-0.2,1.7-0.5,2.5-0.8c0.9-0.4,1.6-1.6,2.3-2.3c2.3-2.4,4.6-4.6,7-6.9
		c5.9-5.6,12.3-11.3,19.5-15.1c6.8-3.5,15.1-3.6,22.5-2.6c3.2,0.3,6.3,1.1,9.3,2.4c0.4,0.2-0.5-0.3,0.1,0c0.1,0.1,0.2,0.1,0.3,0.2
		c0.7,0.4-0.3-0.2,0.3,0.2c-0.5-0.4-0.3-0.2-0.1-0.1c0.4,0.3-0.2-0.4,0,0c0,0.1,0.3,0.4-0.1-0.1c0.1,0.1,0.1,0.3,0.1,0
		c0.3,0.8,0.1,1.6-0.4,2.2c-1.8,2.2-5.9,2.1-8.4,2.3c-4.3,0.3-8.6,0.4-12.8,1.6c-2,0.6-4,1.5-5.8,2.6c-0.5,0.4,0.8,1.7,0.9,1.8
		c0.7,0.7,1.6,1.2,2.5,1.3c6.4,0.9,12.8,1.9,19.1,3.2c1.8,0.2,3.5,0.7,5.1,1.3c0.3,0.1,0.6,0.5,0.3,0.1c0.1,0.1,0.2,0.2,0.3,0.4
		c0.3,0.6,0.3,1.3,0.1,2c-0.5,1.6-2.1,2.4-3.7,2.7c-1.2,0.1-2.5,0.1-3.7,0.1c-1.6,0-3.2,0.1-4.8,0.2c-4.3,0.3-8.5,0.9-12.7,1.7
		c-0.8,0.2,0.1,1.3,0.3,1.5c0.6,0.8,1.5,1.4,2.5,1.7c2.9,0.6,5.7,1.1,8.6,1.6c2.3,0.4,4.6,0.8,6.9,1.1c1,0.1,1.9,0.2,2.9,0.3
		c0.3,0,0.6,0.1,0.9,0.1c0.2,0,0.4,0.1,0.6,0.2c-0.4-0.1,0.5,0.2-0.1-0.1c0.5,0.2-0.3-0.4,0.1,0c0,0-0.4-0.4-0.1-0.1
		c-0.4-0.5,0,0,0.1,0.1s-0.2-0.3,0,0c0.2,0.4,0.3,0.9,0.4,1.3c0,1.3-0.6,2.5-1.6,3.3c-1.7,1.3-3.7,2-5.8,2.2
		c-2.9,0.4-5.8,0.9-8.7,1.5c-3,0.6-5.9,1.5-8.7,2.7c-0.8,0.5-1.6,1-2.3,1.6c-5,3.8-10.3,7.3-15.8,10.3c-3.6,2-7.3,3.6-11.3,4.8
		c-1.7,0.5-3.4,0.8-5.1,0.9c-0.8,0-1.6,0-2.4-0.2c-0.5-0.1-1.1-0.3-1.6-0.5c-0.4-0.2-1.1-0.5-1.5-0.1c-7.2,5.8-14.9,11.1-22.9,15.9
		c-15.1,9.2-31.7,17.4-49.2,20.5c-8,1.5-16.8,1.9-24.7-0.4c-0.3-0.1-0.6-0.2-0.9-0.3c-0.1,0-0.9-0.3-0.4-0.1
		c-0.6-0.2-1.1-0.5-1.7-0.7c-0.2-0.1-1.1-0.5-0.5-0.2l-0.7-0.4l-0.7-0.4c-0.2-0.1-1-0.7-0.4-0.3c-0.5-0.4-1-0.7-1.6-1.1
		c-0.1-0.1-0.9-0.7-0.3-0.2l-0.9-0.8c-0.5-0.4-0.9-0.9-1.4-1.3s0.3,0.4-0.1-0.1l-0.2-0.3c-0.3-0.3-0.6-0.6-0.8-0.9
		c-1-1.1-1.8-2.2-2.5-3.1c-0.9-1.2-1.7-2.4-2.5-3.7c-1.6-2.6-3-5.4-4.3-8.2c-2.8-6.5-5-13.1-6.6-20c-3.4-14.8-5-29.9-4.6-45.1
		c0.3-12.8,1.6-26.4,6.5-38.4c1.7-4.1,3.9-8.2,7.3-11.2c1.4-1.3,3-2.2,4.8-2.7c0.8-0.2,1.6-0.4,2.5-0.4c0.4,0,0.9,0,1.3,0.1
		c0.1,0,0.7,0.1,0.3,0l0.7,0.2l0.6,0.2c0.6,0.2-0.1-0.1,0.3,0.1l0.6,0.3l0.3,0.1c0.5,0.2-0.4-0.2,0,0s0.9,0.5,1.3,0.8
		c-0.6-0.4-0.1-0.1,0.2,0.1l0.7,0.5l0.4,0.3c-0.6-0.4-0.3-0.2-0.2-0.1s0.5,0.4,0.7,0.6l0.6,0.5c0.1,0.1,0.8,0.9,0.4,0.4
		c0.9,0.9,1.7,1.9,2.5,2.9l0.6,0.8c0.1,0.1,0.3,0.4,0.1,0.1l0.3,0.5c0.4,0.6,0.8,1.1,1.2,1.7c0.8,1.2,1.7,2.5,2.4,3.7
		c1.6,2.7,3.2,5.4,4.6,8.2c6.3,12.4,11.1,25.6,15.4,38.8c2.8,8.6,5.4,17.2,7.6,26c0.1,0.4,0.2,0.9,0.3,1.3c0.2,1,1.7,1.9,2.6,2.3
		c0.6,0.3,1.7,0.6,1.5-0.5c-1.6-6.6-3.6-13.2-5.6-19.7c-4-13.3-8.8-26.4-14.5-39.1c-2.7-6.2-5.9-12.2-9.5-17.9
		c-3.1-4.7-6.7-9.4-11.3-12.7c-3.6-2.6-8.2-4.7-12.7-3.4c-4,1.1-7,4.3-9.2,7.6c-2.8,4.6-4.9,9.6-6.1,14.8c-1.7,6.6-2.8,13.2-3.3,20
		c-1.3,15.4-0.6,30.9,2,46.1c2.4,13.9,6.3,28.3,14,40.3c3.2,5.2,7.5,9.7,12.5,13.2c5.9,3.9,12.7,5.4,19.7,5.6
		c18.5,0.7,36.7-6.7,52.7-15.2c11.6-6.1,22.6-13.3,33-21.3c0.6-0.4,1.1-0.9,1.6-1.3l-1.5-0.1c6.4,3.1,14.3-0.2,20.1-3.1
		c6.3-3.2,12.4-7,18-11.3c0.7-0.5,1.4-1.1,2.1-1.6l0.5-0.4c0.3-0.2-0.3,0.1,0,0c2.7-1.2,5.6-2.1,8.5-2.7c3-0.7,6-1.2,9-1.6
		c2.2-0.2,4.3-1.1,6.1-2.4c2.6-2.2,2.2-5.4,0.1-7.8c-1.6-1.8-3.8-3-6.1-3.5c-2.5-0.4-5-0.6-7.4-1s-5.1-0.9-7.7-1.3
		c-0.9-0.1-1.7-0.3-2.5-0.5c-0.1,0-1-0.1-0.5-0.1c-0.1,0-0.2,0-0.3-0.1l2.8,3.2c4.1-0.8,8.3-1.4,12.4-1.7c1.6-0.1,3.2-0.2,4.8-0.2
		c1.5,0.1,2.9,0,4.4-0.2c1.8-0.3,3.3-1.6,3.8-3.3c0.5-1.9-0.5-3.6-1.8-5c-2-2-4.4-3.3-7.2-3.9c-4.4-1.1-8.9-1.8-13.3-2.5
		c-3.2-0.5-6.5-1-9.7-1.5l3.5,3.1c3.8-2.5,8.6-3.2,13-3.6c3.7-0.3,7.6-0.1,11.2-1.2c2.2-0.7,4.2-2.6,3.2-5.1
		c-1.2-2.8-4.6-4.5-7.3-5.6c-7.3-2.8-15.9-3.3-23.6-2.2c-3.6,0.4-7.2,1.6-10.4,3.4c-3.7,2.2-7.2,4.6-10.4,7.4
		c-5.6,4.6-11,9.6-16,14.9c-0.4,0.4-0.8,0.9-1.2,1.3c0.4-0.3,0,0-0.2,0c-1.1,0.3-2.3,0.7-3.4,1.1l-32.8,10.6l-17.3,5.5
		c-3.2,1-6.4,2-9.6,3.1l-0.5,0.1c-0.9,0.3,0.4,1.7,0.7,2C164.5,354.9,165.9,355.9,166.8,355.6z"></path><rect class="st1" x="276.3" y="140.6" transform="matrix(0.9529 -0.3032 0.3032 0.9529 -30.0472 115.1458)" width="159.1" height="27.6"></rect><path class="st0" d="M434.9,142.3l-15.2,4.8l-36.1,11.5l-43.7,13.9l-38,12.1l-12.4,4c-2,0.6-4,1.2-5.9,1.9l-0.3,0.1l3.4,0.5
		l-7.3-23l-1-3.2l-1.5,1.6l15.1-4.8L328,150l43.7-13.9l38-12.1l12.4-4c2-0.6,4-1.2,5.9-1.9l0.3-0.1l-3.4-0.5l7.3,23l1,3.2
		c0.6,1.7,5.4,0.6,4.9-1l-7.3-23l-1-3.2c-0.4-1.2-2.5-0.8-3.4-0.5l-15.2,4.8l-36.2,11.5l-43.7,13.9l-38,12.1
		c-6.1,2-12.3,3.7-18.3,5.8l-0.3,0.1c-0.5,0.2-1.8,0.8-1.5,1.6l7.3,23l1,3.2c0.4,1.2,2.5,0.8,3.4,0.5l15.1-4.8l36.1-11.5l43.7-13.9
		l38-12.1c6.1-1.9,12.3-3.7,18.3-5.8l0.3-0.1c0.7-0.2,2-1,1.4-1.9S435.6,142,434.9,142.3z"></path><rect class="st0" x="388.9" y="123" transform="matrix(0.9529 -0.3032 0.3032 0.9529 -22.1465 130.9753)" width="43.7" height="27.7"></rect><path class="st0" d="M393.8,157.2l-8.7-27.3l42.6-13.6l8.7,27.3L393.8,157.2z M386.3,130.6l8.1,25.4l40.7-13l-8.1-25.4L386.3,130.6
		z"></path><path class="st2" d="M412.2,131c0,0-4.9,1.2-3.2,5.8s7.2,2.6,7.1-1.7S412.2,131,412.2,131z"></path><path class="st2" d="M404.4,139.4c1.4-3,3.8-5.4,6.7-6.9c1.5-0.8,3.1-1.2,4.8-1.4c1.4-0.1,2.7,0.1,3.9,0.8c1.1,0.5,2.2,0.7,3.3,0.8
		c0.3,0,1.9,0.1,1-0.3c-4.6-2.2-10.5-3.4-15.5-1.9c-4,1.3-7.3,4.2-9.1,8c-0.1,0.3,2.2,0.8,2.4,0.9
		C402.3,139.3,404.2,139.9,404.4,139.4L404.4,139.4z"></path><path class="st2" d="M297.5,177.5c3.5-2.4,6.7-5.3,9.3-8.6c1-1.3,0.3-2.7-1.1-3.2c-2.1-0.7-4.3,0.1-5.5,2c-1,1.9-0.6,4.3,1,5.8
		c3,3.1,8,2.6,11.4,0.5c1.7-1.1,3.1-2.4,4.4-4c1.2-1.5,2.7-3.3,2.4-5.4c-0.4-2.1-2.4-3.5-4.4-3.1c-0.1,0-0.3,0.1-0.4,0.1
		c-1.8,0.6-3,2.3-2.9,4.2c0.2,4.4,5.4,6.2,9.1,5.4c2.1-0.5,4-1.4,5.8-2.6c1.9-1.1,3.5-2.4,5-4c1.3-1.5,1.9-3.8,0.3-5.4
		c-1.4-1.4-3.6-1.7-5.2-0.5c-2,1.5-1.3,4.1,0.4,5.5c1.6,1.3,3.5,2.1,5.5,2.2c4.5,0.4,8.8-2.2,11.5-5.6c1.4-1.7,2.5-3.9,1.9-6.1
		c-0.5-2.3-2.5-3.9-4.9-3.9c-1.4-0.1-2.6,0.9-2.7,2.2c0,0.1,0,0.2,0,0.4c0.1,2.8,2.1,5.3,4.5,6.6c3,1.6,6.4,1.6,9.7,1.5
		c1.3,0.1,2.4-0.8,2.8-2c0.1-1.2-0.8-2.2-2-2.3c-0.1,0-0.1,0-0.2,0c-3.5,0.1-9.7,0.3-9.9-4.6l-2.8,2.6c0.4,0,0.4,0.1,0.1-0.1
		c0.1,0.1,0.1-0.1,0.2,0.1s0.3,0.4,0.4,0.6c0.1,0.7-0.1,1.5-0.6,2.1c-1,1.5-2.3,2.6-3.8,3.5c-1.3,0.7-2.8,1-4.3,0.7
		c-0.7-0.2-1.3-0.5-1.9-0.9l-0.3-0.3l-2.1,1.4c-0.1,0-0.3-0.2-0.4-0.3s0-0.3-0.1-0.3s-0.2,0.4-0.2,0.3c-1.4,1.4-3,2.7-4.8,3.6
		c-1.3,0.8-3,1.7-4.6,1.3c-0.5-0.1-1-0.5-1.3-0.9c-0.1-0.1-0.2-0.4-0.2-0.5s0-0.3,0-0.3s0,0-0.1,0.1c-0.5,0.5-1.1,0.6-2,0.1
		c-0.1,0.1-0.6,1.1-0.9,1.4c-0.6,0.8-1.2,1.5-1.9,2.2c-1.2,1.3-2.9,2.5-4.8,2.3c-0.8,0-1.5-0.3-2-0.9c-0.2-0.3-0.3-0.5-0.4-0.8
		c-0.2,0.1-0.5,0.2-0.7,0.2l-1.1-3.2c-2.4,3-5.3,5.6-8.5,7.8c-0.9,0.6-1.2,1.9-0.5,2.8c0.1,0.1,0.1,0.2,0.2,0.2
		C295,178.3,296.4,178.4,297.5,177.5L297.5,177.5z"></path><path class="st1" d="M330.2,146c0,0,11.8-1.2,20.3,4.1s13.8-4.9,4.1-11.4s-24.7-5.4-30.8-1.8"></path><path class="st2" d="M331.3,147h0.2h0.3c0.5,0-0.5,0,0,0c0.9,0,1.8-0.1,2.7,0c1.1,0,2.3,0.1,3.4,0.2c1.4,0.2,2.9,0.4,4.3,0.8
		c1.5,0.4,3,0.9,4.4,1.6c1.5,0.7,2.8,1.7,4.4,2.3c2.5,1,5.8,1.3,8.3,0c1.8-0.9,2.9-2.7,2.9-4.7c0.1-2.6-1.4-4.9-3.2-6.7
		c-4.7-4.7-12.1-6.6-18.6-7.2c-6.2-0.5-13.4-0.2-18.9,3.1c-1,0.6,0.1,1.2,0.7,1.5c1.1,0.4,2.3,0.4,3.4,0c3.9-2.3,8.9-2.8,13.4-2.6
		c5.3,0.2,11.3,1.8,15.2,5.6c2.4,2.2,4.8,7.9,0.5,9.8c-0.2,0.1-0.4,0.1-0.5,0.1c0.4-0.1-0.4-0.1,0.1,0c-0.8-0.2,0.5,0.2-0.4-0.1
		c-1.2-0.5-2.4-1.1-3.5-1.8c-2.8-1.4-5.7-2.3-8.8-2.9c-4.2-0.9-8.5-1.1-12.8-0.7c-0.7,0.1-1.7,0.5-1,1.3S330.4,147.1,331.3,147
		L331.3,147z"></path><path class="st2" d="M153.8,447.6c1.7-6.9,5.6-13,11-17.5c0.9-0.8,0.1-1.8-0.7-2.1c-1.1-0.6-2.4-0.5-3.5,0.2
		c-5.9,4.9-10,11.6-11.9,19c-0.3,1.1,1.6,1.7,2.3,1.8C152.2,448.9,153.5,448.7,153.8,447.6L153.8,447.6z"></path></g><g id="device"><path class="st0" d="M193.8,446.8c3,0,67.7-0.9,67.7-0.9l32.7-89l120.5,1.7l-30.5,103H192.6L193.8,446.8z"></path><path class="st0" d="M195.8,448.1c8.1,0,16.1-0.2,24.2-0.3l35.4-0.5l8-0.1l0.1-0.1l4.1-11.2l9.5-25.7l10.6-28.7l7.4-20.1l0.9-2.3
		c0.1-0.3,0.2-0.6,0.3-0.9c-0.1,0.1-0.2,0.1,0,0.1c0.2,0,0.3,0,0.5,0h1.9l17.7,0.3l28.2,0.4l31.1,0.5l26.4,0.4L416,360h0.6l-4.2-2.6
		l-5.5,18.7l-11.7,39.5l-10.5,35.4l-2.5,8.5c0,0.2-0.1,0.4-0.2,0.7c-0.1,0.2,0.2-0.1,0.1,0c-0.4,0.1-0.9,0.1-1.3,0H190.6l4.2,2.6
		L196,448c0.1-0.7-1.4-1.4-1.9-1.7c-0.2-0.1-2.4-1.2-2.4-0.8l-1.2,14.8c-0.1,0.6,1.2,1.3,1.6,1.5c0.7,0.6,1.6,0.9,2.6,1h183.8
		c2.5,0,5,0.2,7.5,0h0.3l0.1-0.1l3-10.2l7.3-24.6l8.8-29.8l7.6-25.6l2.5-8.5c0.5-1.3,0.9-2.6,1.2-4c0-0.1,0-0.1,0-0.2
		c0.2-0.5-1.3-1.4-1.6-1.5c-0.8-0.5-1.6-0.9-2.6-1l-12-0.2l-28.6-0.4l-34.9-0.5l-30.1-0.4l-9.9-0.1H294c-0.5-0.1-1.1-0.1-1.6,0
		c-0.1,0-0.1,0-0.2,0l-0.1,0.1l-8.3,22.5l-15.5,42.3l-6.1,16.6l-1.9,5.2c-0.2,0.8-0.5,1.6-0.8,2.3c0,0,0.2,0-0.2,0s-1,0-1.5,0
		l-6.3,0.1l-20.7,0.3c-12.6,0.2-25.2,0.4-37.8,0.5h-1.1c-0.6,0,1.1,1.4,1.2,1.4C193.8,447.6,194.8,448,195.8,448.1z"></path><line class="st3" x1="257.8" y1="458.1" x2="269.4" y2="422.2"></line><path class="st2" d="M259.2,460.2l10.2-31.5l1.4-4.5c0.2-0.5-0.9-1.8-1.2-2.2c-0.1-0.2-1.6-1.9-1.6-1.9l-10.2,31.5l-1.4,4.5
		c-0.2,0.5,0.9,1.8,1.2,2.2C257.7,458.4,259.2,460.1,259.2,460.2L259.2,460.2z"></path><path class="st1" d="M339.5,400c-7.6-2.6-16.5-0.2-20.1,7.3c-1.5,3.1-2.2,7.6,0,10.5c1.4,1.6,3.1,2.8,5,3.5c2,0.9,4,1.5,6.2,1.8
		c4.6,0.8,9.4,0.2,13.8-1.7c1-0.5,0-1.4-0.6-1.6c-1.1-0.6-2.3-0.7-3.4-0.3c-2.7,1.2-5.6,1.8-8.5,1.6c-2.5-0.2-5.6-1-7.5-2.9
		c-2.1-2.1-1.5-5.9-0.6-8.5c1-2.8,2.9-5.1,5.4-6.7c2.6-1.7,5.7-2.1,8.7-1.2c0.8,0.3,2.6,0.7,3.2-0.1S340,400.2,339.5,400L339.5,400z
		"></path></g></svg>